<?xml version="1.0" encoding="UTF-8"?>
<svg id="Layer_2" data-name="Layer 2" xmlns="http://www.w3.org/2000/svg" viewBox="0 0 344.28 353.6">
  <defs>
    <style>
      .cls-1 {
        fill: #231f20;
      }

      .cls-1, .cls-2, .cls-3 {
        stroke: #1c1c1d;
        stroke-miterlimit: 10;
      }

      .cls-2, .cls-3 {
        fill: none;
      }

      .cls-3 {
        stroke-linecap: round;
      }
    </style>
  </defs>
  <g id="Layer_1-2" data-name="Layer 1">
    <g>
      <path class="cls-2" d="m251.46,338.19v14.91H92.82v-14.91c0-21.61,8.76-41.28,22.92-55.63,5.75,1.13,11.69,1.72,17.76,1.72h77.28c6.07,0,12.01-.59,17.76-1.72,14.16,14.35,22.92,34.02,22.92,55.63Z"/>
      <path class="cls-2" d="m300.7,213.83l-49.12-59.83,14.7-19.82h-65.03l-29.11-23.32-29.11,23.32h-65.03l14.7,19.82-49.12,59.83-.11.04c8.66,34.67,36.97,61.77,72.27,68.69,5.75,1.13,11.69,1.72,17.76,1.72h77.28c6.07,0,12.01-.59,17.76-1.72,18.43-3.61,34.94-12.72,47.76-25.53,11.75-11.75,20.39-26.62,24.52-43.21h-.12Zm-218.12,17.24c-7.52,5.59-16.04,6.86-19.04,2.82-3.01-4.03.65-11.83,8.16-17.43,7.52-5.59,16.04-6.86,19.04-2.83,3.01,4.04-.65,11.84-8.16,17.44Zm45.1-68.71c0-1.62,1.32-2.94,2.94-2.94.8,0,1.54.33,2.07.86.53.54.86,1.27.86,2.08v9.92c0,1.61-1.32,2.93-2.93,2.93s-2.94-1.32-2.94-2.93v-9.92Zm14.91,49.76c-.77,1.59-4.63,1.3-8.63-.64-4.01-1.94-6.63-4.8-5.86-6.38.77-1.58,4.64-1.3,8.64.64s6.62,4.8,5.85,6.38Zm67.73-.64c-4,1.94-7.86,2.23-8.63.64-.77-1.58,1.85-4.44,5.85-6.38s7.87-2.22,8.64-.64c.77,1.58-1.86,4.44-5.86,6.38Zm6.28-39.2c0,1.61-1.32,2.93-2.94,2.93s-2.93-1.32-2.93-2.93v-9.92c0-1.62,1.32-2.94,2.93-2.94.81,0,1.54.33,2.08.86.53.54.86,1.27.86,2.08v9.92Zm64.14,61.61c-3,4.04-11.52,2.77-19.04-2.82-7.51-5.6-11.17-13.4-8.16-17.44,3-4.03,11.52-2.76,19.04,2.83,7.51,5.6,11.17,13.4,8.16,17.43Z"/>
      <path class="cls-2" d="m82.58,231.06c-7.52,5.59-16.04,6.86-19.04,2.82-3.01-4.03.65-11.83,8.16-17.43,7.52-5.59,16.04-6.86,19.04-2.83,3.01,4.04-.65,11.84-8.16,17.44Z"/>
      <path class="cls-2" d="m133.55,162.35v9.92c0,1.61-1.32,2.93-2.93,2.93s-2.94-1.32-2.94-2.93v-9.92c0-1.62,1.32-2.94,2.94-2.94.8,0,1.54.33,2.07.86.53.54.86,1.27.86,2.08Z"/>
      <path class="cls-2" d="m142.59,212.11c-.77,1.59-4.63,1.3-8.63-.64-4.01-1.94-6.63-4.8-5.86-6.38.77-1.58,4.64-1.3,8.64.64s6.62,4.8,5.85,6.38Z"/>
      <path class="cls-2" d="m210.32,211.47c-4,1.94-7.86,2.23-8.63.64-.77-1.58,1.85-4.44,5.85-6.38s7.87-2.22,8.64-.64c.77,1.58-1.86,4.44-5.86,6.38Z"/>
      <path class="cls-2" d="m216.6,162.35v9.92c0,1.61-1.32,2.93-2.94,2.93s-2.93-1.32-2.93-2.93v-9.92c0-1.62,1.32-2.94,2.93-2.94.81,0,1.54.33,2.08.86.53.54.86,1.27.86,2.08Z"/>
      <path class="cls-2" d="m280.74,233.88c-3,4.04-11.52,2.77-19.04-2.82-7.51-5.6-11.17-13.4-8.16-17.44,3-4.03,11.52-2.76,19.04,2.83,7.51,5.6,11.17,13.4,8.16,17.43Z"/>
      <g>
        <path class="cls-1" d="m216.6,162.35v9.92c0,1.61-1.32,2.93-2.94,2.93s-2.93-1.32-2.93-2.93v-9.92c0-1.62,1.32-2.94,2.93-2.94.81,0,1.54.33,2.08.86.53.54.86,1.27.86,2.08Z"/>
        <path class="cls-1" d="m133.55,162.35v9.92c0,1.61-1.32,2.93-2.93,2.93s-2.94-1.32-2.94-2.93v-9.92c0-1.62,1.32-2.94,2.94-2.94.8,0,1.54.33,2.07.86.53.54.86,1.27.86,2.08Z"/>
      </g>
      <path class="cls-2" d="m92.7,154l-49.12,59.83-.11.04c-.81-3.24-1.45-6.54-1.9-9.91-.48-3.43-.75-6.92-.82-10.47h0c-.02-.67-.03-1.32-.03-1.99,0-5.92.56-11.72,1.65-17.35,1.17-6.17,2.96-12.12,5.31-17.8,3.3-8.01,7.7-15.46,13-22.17h17.32l14.7,19.82Z"/>
      <path class="cls-2" d="m303.56,191.5c0,.67,0,1.32-.03,1.98h0c-.07,3.56-.34,7.06-.82,10.49-.45,3.35-1.08,6.63-1.89,9.85h-.12s-49.12-59.82-49.12-59.82l14.7-19.82h17.32c5.3,6.7,9.69,14.16,12.99,22.16,2.36,5.68,4.15,11.64,5.32,17.81,1.09,5.63,1.65,11.43,1.65,17.35Z"/>
      <path class="cls-2" d="m343.78,178.16c0,15.81-12.83,28.63-28.64,28.63-4.45,0-8.67-1.01-12.43-2.82.48-3.43.75-6.93.82-10.48h0c.02-.67.03-1.32.03-1.99,0-5.92-.56-11.72-1.65-17.35-1.17-6.17-2.96-12.13-5.32-17.81,4.99-4.25,11.47-6.82,18.55-6.82,15.81,0,28.64,12.82,28.64,28.64Z"/>
      <g>
        <g>
          <path class="cls-2" d="m210.32,211.47c-4,1.94-7.86,2.23-8.63.64-.77-1.58,1.85-4.44,5.85-6.38s7.87-2.22,8.64-.64c.77,1.58-1.86,4.44-5.86,6.38Z"/>
          <path class="cls-3" d="m213.78,218.99c2.45-.91,4.93-2.18,7.34-3.81,9.99-6.75,14.83-17.04,10.82-22.98-4.01-5.94-15.37-5.28-25.36,1.48-6.06,4.1-10.21,9.49-11.65,14.43"/>
        </g>
        <g>
          <path class="cls-2" d="m142.59,212.11c-.77,1.59-4.63,1.3-8.63-.64-4.01-1.94-6.63-4.8-5.86-6.38.77-1.58,4.64-1.3,8.64.64s6.62,4.8,5.85,6.38Z"/>
          <path class="cls-3" d="m130.5,218.99c-2.45-.91-4.93-2.18-7.34-3.81-9.99-6.75-14.83-17.04-10.82-22.98,4.01-5.94,15.37-5.28,25.36,1.48,6.06,4.1,10.21,9.49,11.65,14.43"/>
        </g>
      </g>
      <g>
        <path class="cls-3" d="m112.48,148.33c4.05-7.37,10.48-9.83,19.31-7.37"/>
        <path class="cls-3" d="m231.79,148.33c-4.05-7.37-10.48-9.83-19.31-7.37"/>
      </g>
      <g>
        <g>
          <path class="cls-2" d="m343.78,178.16c0,15.81-12.83,28.63-28.64,28.63-4.45,0-8.67-1.01-12.43-2.82.48-3.43.75-6.93.82-10.48h0c.02-.67.03-1.32.03-1.99,0-5.92-.56-11.72-1.65-17.35-1.17-6.17-2.96-12.13-5.32-17.81,4.99-4.25,11.47-6.82,18.55-6.82,15.81,0,28.64,12.82,28.64,28.64Z"/>
          <path class="cls-2" d="m322.68,183.18c0,6.82-5.53,12.35-12.35,12.35-2.51,0-4.85-.75-6.8-2.04h0c.02-.67.03-1.32.03-1.99,0-5.92-.56-11.72-1.65-17.35,2.21-2.06,5.16-3.32,8.42-3.32,6.82,0,12.35,5.53,12.35,12.35Z"/>
        </g>
        <g>
          <path class="cls-2" d="m22.14,179.54c-.35,1.15-.54,2.37-.54,3.64,0,2.79.93,5.37,2.49,7.44,2.26,2.98,5.83,4.91,9.86,4.91,2.51,0,4.85-.75,6.8-2.04.07,3.55.34,7.04.82,10.47-3.76,1.81-7.98,2.83-12.43,2.83-.75,0-1.49-.03-2.22-.1-14.78-1.12-26.42-13.47-26.42-28.53,0-11.6,6.89-21.59,16.81-26.08,3.6-1.65,7.61-2.56,11.83-2.56,7.07,0,13.54,2.57,18.54,6.83-2.35,5.68-4.14,11.63-5.31,17.8-2.21-2.06-5.16-3.32-8.42-3.32-5.55,0-10.25,3.67-11.81,8.71Z"/>
          <path class="cls-2" d="m40.72,191.5c0,.67.01,1.32.03,1.98h0c-1.95,1.3-4.29,2.05-6.8,2.05-4.03,0-7.6-1.93-9.86-4.91-1.56-2.07-2.49-4.65-2.49-7.44,0-1.27.19-2.49.54-3.64,1.56-5.04,6.26-8.71,11.81-8.71,3.26,0,6.21,1.26,8.42,3.32-1.09,5.63-1.65,11.43-1.65,17.35Z"/>
          <path class="cls-2" d="m40.72,191.5c0,.67.01,1.32.03,1.98h0c-1.95,1.3-4.29,2.05-6.8,2.05-4.03,0-7.6-1.93-9.86-4.91-1.56-2.07-2.49-4.65-2.49-7.44,0-1.27.19-2.49.54-3.64,1.56-5.04,6.26-8.71,11.81-8.71,3.26,0,6.21,1.26,8.42,3.32-1.09,5.63-1.65,11.43-1.65,17.35Z"/>
        </g>
      </g>
      <path class="cls-2" d="m192.61,284.28c-2.04,9.43-10.43,16.5-20.47,16.5s-18.43-7.07-20.47-16.5h40.94Z"/>
      <g>
        <path class="cls-2" d="m82.58,231.06c-7.52,5.59-16.04,6.86-19.04,2.82-3.01-4.03.65-11.83,8.16-17.43,7.52-5.59,16.04-6.86,19.04-2.83,3.01,4.04-.65,11.84-8.16,17.44Z"/>
        <path class="cls-2" d="m280.74,233.88c-3,4.04-11.52,2.77-19.04-2.82-7.51-5.6-11.17-13.4-8.16-17.44,3-4.03,11.52-2.76,19.04,2.83,7.51,5.6,11.17,13.4,8.16,17.43Z"/>
      </g>
      <g>
        <path class="cls-3" d="m172.14,32.16c0-17.5,14.16-31.66,31.66-31.66"/>
        <path class="cls-3" d="m172.14,32.16c0-17.5-14.16-31.66-31.66-31.66"/>
      </g>
      <path class="cls-2" d="m323.78,134.18h-122.53l-29.11-23.32-29.11,23.32H20.5c0-7.72,2.14-15.91,6.12-24.16,18.47-38.26,76.63-77.86,145.52-77.86,57.98,0,108.36,28.05,133.87,59.75,11.34,14.08,17.77,28.89,17.77,42.27Z"/>
    </g>
  </g>
</svg>